<?xml version="1.0" standalone="no"?>
<!DOCTYPE svg PUBLIC "-//W3C//DTD SVG 20010904//EN"
 "http://www.w3.org/TR/2001/REC-SVG-20010904/DTD/svg10.dtd">
<svg version="1.0" xmlns="http://www.w3.org/2000/svg"
 width="600.000000pt" height="216.000000pt" viewBox="0 0 600.000000 216.000000"
 preserveAspectRatio="xMidYMid meet">
<metadata>
Created by potrace 1.16, written by Peter Selinger 2001-2019
</metadata>
<g transform="translate(0.000000,216.000000) scale(0.100000,-0.100000)"
fill="#000000" stroke="none">
<path d="M3281 2145 c-161 -35 -254 -134 -255 -270 0 -152 99 -238 349 -303
165 -43 199 -66 199 -128 0 -57 -39 -87 -118 -92 -54 -4 -71 -1 -101 18 -37
23 -75 84 -75 120 0 21 -3 22 -112 15 -62 -3 -128 -8 -147 -11 -33 -5 -33 -6
-27 -47 4 -23 17 -65 30 -92 62 -135 166 -191 371 -200 112 -4 189 6 269 35
201 76 273 343 132 485 -58 58 -134 91 -310 135 -161 41 -193 60 -180 104 10
33 24 45 63 57 74 22 164 -24 177 -91 l6 -30 102 5 c55 3 120 8 143 11 41 5
42 6 36 37 -16 90 -73 171 -147 209 -89 46 -275 61 -405 33z"/>
<path d="M70 1656 l0 -486 150 0 150 0 0 195 0 195 30 0 c70 0 83 -16 216
-262 l68 -128 168 0 c92 0 168 3 168 7 0 3 -34 72 -76 152 -84 162 -128 222
-182 250 l-36 18 49 22 c75 33 111 66 141 128 54 110 32 248 -51 321 -73 64
-83 65 -457 69 l-338 4 0 -485z m481 284 c65 -12 89 -37 89 -92 0 -73 -50 -98
-197 -98 l-73 0 0 93 c0 52 3 97 7 100 10 10 113 8 174 -3z"/>
<path d="M330 1000 c-186 -30 -289 -129 -290 -279 0 -155 94 -235 356 -305 69
-18 138 -42 152 -53 101 -75 -5 -199 -139 -163 -55 15 -96 57 -111 114 l-12
46 -81 -5 c-44 -3 -109 -8 -143 -11 l-64 -6 7 -36 c26 -138 105 -236 221 -272
143 -45 365 -35 480 20 99 48 166 150 172 260 11 186 -81 272 -373 346 -162
41 -185 53 -185 94 0 42 40 70 102 70 68 0 106 -22 130 -77 l20 -46 76 7 c41
3 104 6 139 6 74 0 76 4 42 97 -31 83 -97 145 -183 172 -76 23 -234 34 -316
21z"/>
<path d="M1455 995 c-234 -42 -364 -214 -365 -481 0 -121 13 -184 54 -269 82
-166 225 -245 447 -245 177 0 302 59 377 178 32 50 70 147 61 156 -3 3 -62 23
-131 44 l-126 39 -21 -58 c-36 -97 -103 -138 -206 -127 -97 11 -143 81 -152
232 -10 160 27 259 110 297 97 43 203 5 243 -88 13 -29 16 -31 46 -23 18 5 77
18 131 30 98 22 99 22 92 49 -20 79 -111 188 -193 230 -84 43 -243 59 -367 36z"/>
<path d="M3805 1004 c-107 -21 -139 -31 -196 -60 -77 -41 -114 -77 -163 -157
-43 -73 -66 -170 -66 -280 0 -109 13 -177 50 -255 78 -166 236 -252 465 -252
175 0 328 69 402 181 l25 39 28 -38 c91 -123 225 -182 415 -182 205 0 364 82
439 226 l25 49 1 -127 0 -128 385 0 385 0 0 120 0 120 -235 0 -235 0 0 365 0
365 -150 0 -150 0 0 -127 0 -128 -24 41 c-42 73 -70 105 -130 145 -75 50 -167
78 -275 84 -199 10 -362 -54 -451 -177 l-28 -38 -17 26 c-49 76 -139 137 -246
168 -53 16 -212 28 -254 20z m175 -252 c75 -40 104 -117 98 -272 -3 -89 -7
-114 -28 -155 -62 -120 -250 -130 -327 -17 -69 103 -52 346 30 420 57 53 151
63 227 24z m837 17 c104 -27 149 -120 141 -295 -6 -130 -30 -185 -98 -222 -37
-19 -56 -23 -111 -20 -81 4 -130 37 -163 107 -18 39 -21 64 -20 166 0 133 11
169 62 218 29 28 90 56 125 57 10 0 39 -5 64 -11z"/>
<path d="M2260 505 l0 -485 150 0 150 0 2 193 3 192 163 3 162 2 0 -195 0
-195 150 0 150 0 0 485 0 485 -150 0 -150 0 0 -170 0 -170 -162 2 -163 3 -3
168 -2 167 -150 0 -150 0 0 -485z"/>
</g>
</svg>
